<?xml version='1.0' encoding='utf-8'?>
<svg xmlns="http://www.w3.org/2000/svg" id="go-lockup-compact-v6" preserveAspectRatio="xMidYMid meet" role="img" aria-label="GO AI DIRECT+" viewBox="-160 -120 6978.900523560209 1240"><title>GO AI DIRECT+ — compact header</title><g data-go-mark="equal-circles-v26" fill="#061B3A" id="go-mark"><path data-letter="G" d="M914.519 220.404 A500 500 0 1 0 1000 500 L815 500 A315 315 0 1 1 761.147 323.854 Z" /><path d="M600 420 H1030 V580 H470 Z" /><path data-letter="O" d="M1060.102051 400 A500 500 0 1 1 1060.102051 600 L1251.294459 600 A315 315 0 1 0 1251.294459 400 Z" /><rect data-connector="red-block" x="1050" y="420" width="160" height="160" fill="#FF3B24" /></g>
  <g id="english-line" fill="#061B3A"><path d="M2597.755 432.515 2609.995 470.0H2649.265L2585.005 284.105H2542.675L2476.63 470.0H2515.645L2528.14 432.515ZM2587.3 400.64H2538.85L2563.075 327.96500000000003Z" id="english-0" data-character="A" transform="matrix(3.336413099271 0.000000000000 0.000000000000 3.336413099271 -5913.060774047841 -762.682219484653)" /><path d="M2752.425 284.105H2714.175V470.0H2752.425Z" id="english-1" data-character="I" transform="matrix(3.336413099271 0.000000000000 0.000000000000 3.336413099271 -6065.627348321530 -762.682219484653)" /><path d="M2947.525 470.0H3020.2C3048.505 470.0 3066.355 463.37 3079.105 448.325C3093.64 430.985 3101.545 405.995 3101.545 376.925C3101.545 348.11 3093.64 323.12 3079.105 305.525C3066.355 290.48 3048.7599999999998 284.105 3020.2 284.105H2947.525ZM2985.775 438.125V315.98H3020.2C3049.015 315.98 3063.295 336.125 3063.295 377.18C3063.295 417.98 3049.015 438.125 3020.2 438.125Z" id="english-2" data-character="D" transform="matrix(3.336413099271 0.000000000000 0.000000000000 3.336413099271 -6476.561543989326 -762.682219484653)" /><path d="M3210.315 284.105H3172.065V470.0H3210.315Z" id="english-3" data-character="I" transform="matrix(3.336413099271 0.000000000000 0.000000000000 3.336413099271 -6647.845395749924 -762.682219484653)" /><path d="M3329.54 396.305H3373.4C3389.975 396.305 3397.115 402.935 3397.115 418.235V425.885C3396.8599999999997 430.73 3396.8599999999997 435.32 3396.8599999999997 438.125C3396.8599999999997 455.72 3397.88 461.075 3402.47 470.0H3443.5249999999996V463.115C3437.66 459.8 3435.365 455.975 3435.365 447.815C3434.345 392.99 3433.325 390.44 3409.6099999999997 380.24C3430.52 372.08 3440.975 357.03499999999997 3440.975 334.34000000000003C3440.975 319.55 3435.875 306.03499999999997 3426.95 296.855C3418.535 288.185 3406.805 284.105 3390.995 284.105H3291.29V470.0H3329.54ZM3329.54 364.43V315.98H3375.6949999999997C3386.66 315.98 3390.995 317.0 3395.8399999999997 320.825C3400.43 324.65 3402.725 331.025 3402.725 339.695C3402.725 348.62 3400.43 355.76 3395.8399999999997 359.585C3391.505 363.155 3386.66 364.43 3375.6949999999997 364.43Z" id="english-4" data-character="R" transform="matrix(3.336413099271 0.000000000000 0.000000000000 3.336413099271 -6854.011446463403 -762.682219484653)" /><path d="M3557.395 389.93H3646.39V358.055H3557.395V315.98H3653.53V284.105H3519.145V470.0H3658.12V438.125H3557.395Z" id="english-5" data-character="E" transform="matrix(3.336413099271 0.000000000000 0.000000000000 3.336413099271 -7048.311005030288 -762.682219484653)" /><path d="M3886.995 347.09000000000003C3885.7200000000003 331.025 3882.405 320.825 3874.5 310.37C3860.2200000000003 291.5 3837.27 281.04499999999996 3809.475 281.04499999999996C3756.945 281.04499999999996 3724.305 318.53 3724.305 378.71C3724.305 438.635 3756.69 475.865 3808.455 475.865C3854.8650000000002 475.865 3885.465 449.09 3887.76 406.505H3850.53C3847.98 430.22 3833.19 443.735 3809.475 443.735C3779.895 443.735 3762.555 419.765 3762.555 379.22C3762.555 338.16499999999996 3780.66 313.685 3810.75 313.685C3832.935 313.685 3845.43 324.395 3850.53 347.09000000000003Z" id="english-6" data-character="C" transform="matrix(3.336413099271 0.000000000000 0.000000000000 3.336413099271 -7211.131506005546 -762.682219484653)" /><path d="M4039.3700000000003 315.98H4093.6850000000004V284.105H3944.7650000000003V315.98H4001.1200000000003V470.0H4039.3700000000003Z" id="english-7" data-character="T" transform="matrix(3.336413099271 0.000000000000 0.000000000000 3.336413099271 -7349.323734729497 -762.682219484653)" /><path data-plus="upper-right" d="M4148.685 309.045h126v30h-126Z M4196.685 261.045h30v126h-30Z" fill="#FF3B24" id="plus" transform="matrix(2.063492063492 0.000000000000 0.000000000000 2.063492063492 -2161.878047868364 -353.454861630516)" />
  </g></svg>